<svg width="158" height="40" viewBox="0 0 158 40" fill="none" xmlns="http://www.w3.org/2000/svg">
<path d="M143.111 34.4004C140.951 34.4004 139.138 34.0137 137.671 33.2404C136.231 32.4404 135.138 31.2271 134.391 29.6004C133.645 27.9737 133.271 25.9071 133.271 23.4004C133.271 20.8671 133.645 18.8004 134.391 17.2004C135.138 15.5737 136.245 14.3737 137.711 13.6004C139.178 12.8004 141.005 12.4004 143.191 12.4004C145.191 12.4004 146.858 12.7871 148.191 13.5604C149.551 14.3071 150.578 15.4537 151.271 17.0004C151.965 18.5471 152.311 20.4937 152.311 22.8404V24.4404H137.551C137.605 25.9337 137.831 27.1871 138.231 28.2004C138.631 29.1871 139.231 29.9204 140.031 30.4004C140.858 30.8537 141.898 31.0804 143.151 31.0804C143.925 31.0804 144.618 30.9871 145.231 30.8004C145.845 30.5871 146.365 30.2937 146.791 29.9204C147.218 29.5204 147.551 29.0537 147.791 28.5204C148.031 27.9604 148.151 27.3337 148.151 26.6404H152.231C152.231 27.8937 152.018 29.0004 151.591 29.9604C151.165 30.9204 150.538 31.7337 149.711 32.4004C148.911 33.0404 147.951 33.5337 146.831 33.8804C145.711 34.2271 144.471 34.4004 143.111 34.4004ZM137.631 21.4004H147.951C147.951 20.3604 147.831 19.4937 147.591 18.8004C147.378 18.0804 147.058 17.4937 146.631 17.0404C146.205 16.5871 145.698 16.2671 145.111 16.0804C144.525 15.8671 143.858 15.7604 143.111 15.7604C141.991 15.7604 141.031 15.9604 140.231 16.3604C139.458 16.7604 138.858 17.3871 138.431 18.2404C138.005 19.0671 137.738 20.1204 137.631 21.4004Z" fill="white"/>
<path d="M124.861 33.92V5H129.021V33.92H124.861Z" fill="white"/>
<path d="M112.257 34.4C110.871 34.4 109.617 34.12 108.497 33.56C107.377 33 106.457 32.16 105.737 31.04H105.457L105.097 33.92H101.697V5H105.857V15.44H106.097C106.551 14.7467 107.084 14.1733 107.697 13.72C108.337 13.2667 109.057 12.9333 109.857 12.72C110.657 12.5067 111.524 12.4 112.457 12.4C114.057 12.4 115.471 12.7867 116.697 13.56C117.924 14.3333 118.871 15.52 119.537 17.12C120.231 18.72 120.577 20.7867 120.577 23.32C120.577 25.9067 120.244 28.0133 119.577 29.64C118.911 31.2667 117.951 32.4667 116.697 33.24C115.471 34.0133 113.991 34.4 112.257 34.4ZM111.097 30.8C112.297 30.8 113.271 30.56 114.017 30.08C114.791 29.6 115.364 28.8533 115.737 27.84C116.111 26.8 116.297 25.4533 116.297 23.8V23.08C116.297 21.4267 116.111 20.08 115.737 19.04C115.391 18 114.831 17.24 114.057 16.76C113.284 16.2533 112.271 16 111.017 16C110.244 16 109.537 16.1333 108.897 16.4C108.257 16.6667 107.711 17.0933 107.257 17.68C106.804 18.24 106.457 18.9733 106.217 19.88C105.977 20.7867 105.857 21.88 105.857 23.16V23.72C105.857 25.24 106.031 26.5333 106.377 27.6C106.751 28.64 107.324 29.44 108.097 30C108.871 30.5333 109.871 30.8 111.097 30.8Z" fill="white"/>
<path d="M85.0248 34.4004C84.3581 34.4004 83.6381 34.3204 82.8648 34.1604C82.0914 34.0004 81.3581 33.7071 80.6648 33.2804C79.9981 32.8537 79.4514 32.2671 79.0248 31.5204C78.5981 30.7471 78.3848 29.7471 78.3848 28.5204C78.3848 27.0804 78.7181 25.8937 79.3848 24.9604C80.0514 24.0271 80.9848 23.2937 82.1848 22.7604C83.3848 22.2271 84.8114 21.8537 86.4648 21.6404C88.1448 21.4271 89.9714 21.3204 91.9448 21.3204V19.2404C91.9448 18.5471 91.8248 17.9337 91.5848 17.4004C91.3714 16.8671 90.9581 16.4537 90.3448 16.1604C89.7581 15.8671 88.9048 15.7204 87.7848 15.7204C86.6648 15.7204 85.7848 15.8671 85.1448 16.1604C84.5314 16.4271 84.0914 16.7737 83.8248 17.2004C83.5848 17.6004 83.4648 18.0404 83.4648 18.5204V19.1204H79.4648C79.4381 18.9871 79.4248 18.8537 79.4248 18.7204C79.4248 18.5871 79.4248 18.4271 79.4248 18.2404C79.4248 16.9871 79.7714 15.9337 80.4648 15.0804C81.1848 14.2004 82.1848 13.5337 83.4648 13.0804C84.7448 12.6271 86.2248 12.4004 87.9048 12.4004C89.7181 12.4004 91.2248 12.6671 92.4248 13.2004C93.6514 13.7071 94.5714 14.4404 95.1848 15.4004C95.7981 16.3604 96.1048 17.5204 96.1048 18.8804V29.5604C96.1048 30.0671 96.2248 30.4271 96.4648 30.6404C96.7314 30.8537 97.0381 30.9604 97.3848 30.9604H98.8248V33.7604C98.5048 33.8937 98.1048 34.0271 97.6248 34.1604C97.1448 34.2937 96.5848 34.3604 95.9448 34.3604C95.2248 34.3604 94.6114 34.2271 94.1048 33.9604C93.6248 33.7204 93.2248 33.3737 92.9048 32.9204C92.6114 32.4404 92.4114 31.9071 92.3048 31.3204H92.0648C91.5848 31.9337 90.9981 32.4804 90.3048 32.9604C89.6381 33.4137 88.8648 33.7604 87.9848 34.0004C87.1048 34.2671 86.1181 34.4004 85.0248 34.4004ZM86.1848 30.9604C87.0114 30.9604 87.7714 30.8404 88.4648 30.6004C89.1848 30.3337 89.7981 29.9737 90.3048 29.5204C90.8114 29.0404 91.2114 28.4804 91.5048 27.8404C91.7981 27.1737 91.9448 26.4537 91.9448 25.6804V24.2804C90.1048 24.2804 88.4914 24.3871 87.1048 24.6004C85.7181 24.8137 84.6381 25.2137 83.8648 25.8004C83.0914 26.3604 82.7048 27.1471 82.7048 28.1604C82.7048 28.7737 82.8381 29.2937 83.1048 29.7204C83.3714 30.1204 83.7714 30.4271 84.3048 30.6404C84.8381 30.8537 85.4648 30.9604 86.1848 30.9604Z" fill="white"/>
<path d="M72.7575 34.4C71.5575 34.4 70.6108 34.1733 69.9175 33.72C69.2508 33.24 68.7708 32.64 68.4775 31.92C68.2108 31.1733 68.0775 30.3867 68.0775 29.56V16.32H65.4375V12.88H68.1575L68.9175 7H72.2375V12.88H76.0375V16.32H72.2375V29.08C72.2375 29.6933 72.3708 30.16 72.6375 30.48C72.9042 30.8 73.3442 30.96 73.9575 30.96H76.0375V33.76C75.7708 33.8667 75.4375 33.96 75.0375 34.04C74.6642 34.1467 74.2775 34.2267 73.8775 34.28C73.4775 34.36 73.1042 34.4 72.7575 34.4Z" fill="white"/>
<path d="M51.44 34.4C49.9467 34.4 48.5067 34.24 47.12 33.92C45.7333 33.6267 44.5067 33.1467 43.44 32.48C42.3733 31.7867 41.5333 30.92 40.92 29.88C40.3067 28.8133 40 27.5467 40 26.08C40 25.92 40 25.7733 40 25.64C40.0267 25.48 40.04 25.3467 40.04 25.24H44.52C44.52 25.32 44.5067 25.44 44.48 25.6C44.48 25.76 44.48 25.8933 44.48 26C44.48 26.9867 44.7733 27.8267 45.36 28.52C45.9467 29.2133 46.76 29.7333 47.8 30.08C48.8667 30.4267 50.08 30.6 51.44 30.6C52.1867 30.6 52.9067 30.56 53.6 30.48C54.2933 30.3733 54.92 30.2267 55.48 30.04C56.0667 29.8267 56.5733 29.5733 57 29.28C57.4267 28.96 57.76 28.5867 58 28.16C58.24 27.7333 58.36 27.24 58.36 26.68C58.36 25.8267 58.1067 25.12 57.6 24.56C57.12 24 56.4533 23.5333 55.6 23.16C54.7733 22.7867 53.8267 22.4533 52.76 22.16C51.72 21.8667 50.64 21.5733 49.52 21.28C48.4 20.9867 47.3067 20.64 46.24 20.24C45.2 19.84 44.2533 19.36 43.4 18.8C42.5733 18.2133 41.9067 17.4933 41.4 16.64C40.92 15.76 40.68 14.6933 40.68 13.44C40.68 12.24 40.9333 11.1733 41.44 10.24C41.9467 9.30667 42.68 8.53333 43.64 7.92C44.6 7.28 45.7467 6.8 47.08 6.48C48.4133 6.16 49.92 6 51.6 6C53.04 6 54.4 6.16 55.68 6.48C56.96 6.77333 58.08 7.24 59.04 7.88C60 8.52 60.7467 9.33333 61.28 10.32C61.84 11.3067 62.12 12.48 62.12 13.84V14.32H57.68V13.8C57.68 12.9467 57.4267 12.2267 56.92 11.64C56.4133 11.0533 55.7067 10.6 54.8 10.28C53.8933 9.96 52.84 9.8 51.64 9.8C50.2267 9.8 49.04 9.94667 48.08 10.24C47.12 10.5067 46.3867 10.8933 45.88 11.4C45.4 11.88 45.16 12.4667 45.16 13.16C45.16 13.9333 45.4133 14.5733 45.92 15.08C46.4267 15.56 47.0933 15.9733 47.92 16.32C48.7733 16.6667 49.72 16.9867 50.76 17.28C51.8267 17.5467 52.9067 17.84 54 18.16C55.12 18.4533 56.2 18.8 57.24 19.2C58.3067 19.6 59.2533 20.0933 60.08 20.68C60.9333 21.2667 61.6133 22 62.12 22.88C62.6267 23.7333 62.88 24.7867 62.88 26.04C62.88 28.0133 62.3867 29.6267 61.4 30.88C60.4133 32.1067 59.0533 33 57.32 33.56C55.6133 34.12 53.6533 34.4 51.44 34.4Z" fill="white"/>
<path fill-rule="evenodd" clip-rule="evenodd" d="M31 6H8V14V34H31V26V6ZM27 20.6873V10H12V14C12 14.2783 12.2009 14.8983 13.9002 15.7927C15.4892 16.629 17.6717 17.3253 20.1023 18.0928L20.2176 18.1293C22.5065 18.8519 25.0219 19.6461 26.9627 20.6677C26.9751 20.6742 26.9876 20.6807 27 20.6873ZM12 19.3127C12.0124 19.3192 12.0249 19.3258 12.0373 19.3323C13.9781 20.3539 16.4935 21.148 18.7824 21.8707L18.7824 21.8707L18.8977 21.9072C21.3283 22.6747 23.5108 23.371 25.0998 24.2073C26.7991 25.1017 27 25.7217 27 26V30H12V19.3127Z" fill="white"/>
</svg>
